:FULLY-SPECIFIED
:FORCE-ALL-JOINTS-BE-3DOF
:DEGREES
1427
root -2.08613 13.7121 12.6885 366.503 27.4348 366.41
lfemur 25.7813 -0.239086 -10.1534
ltibia 16.7409 0 0
lfoot -15.8104 34.4684 0
ltoes -25.3298 0 0
rfemur -65.3601 -21.1958 12.0699
rtibia 74.2719 0 0
rfoot -9.37492 9.77652 0
rtoes 3.89024 0 0
lowerback 10.2462 2.02298 -10.1679
upperback -3.31836 1.21506 -0.925821
thorax -9.60433 1.16363 4.49629
lowerneck 0.0679319 -11.6699 -10.5354
upperneck 6.13129 -16.0577 9.61062
head 3.44257 -7.98624 3.87032
lclavicle -3.40853e-14 -1.17577e-14 0
lhumerus -73.6734 -17.7403 104.158
lradius 101.005 0 0
lwrist 58.3812 0 0
lhand -9.66921 42.2572 0
lfingers 7.12502 0 0
lthumb 16.3022 -288.408 0
rclavicle -3.40853e-14 -1.17577e-14 0
rhumerus 63.2679 -13.9033 -28.0685
rradius 81.9153 0 0
rwrist 27.1882 0 0
rhand -44.0715 -30.9476 0
rfingers 7.12502 0 0
rthumb -16.89 -60.2331 0
1428
root -2.08972 13.7116 12.6877 366.529 27.3982 366.417
lfemur 25.7343 -0.23554 -10.1709
ltibia 16.7817 0 0
lfoot -15.8041 34.5031 0
ltoes -25.0662 0 0
rfemur -65.4161 -21.2403 12.1249
rtibia 74.2539 0 0
rfoot -9.35217 9.87123 0
rtoes 4.0323 0 0
lowerback 10.2421 2.0239 -10.1674
upperback -3.32341 1.21668 -0.924431
thorax -9.60787 1.16477 4.49717
lowerneck 0.049992 -11.6672 -10.5272
upperneck 6.12109 -16.0521 9.61103
head 3.44123 -7.98284 3.86888
lclavicle -4.50819e-14 -6.33389e-15 0
lhumerus -73.6803 -17.8052 104.203
lradius 100.974 0 0
lwrist 58.3804 0 0
lhand -9.66608 42.1437 0
lfingers 7.12502 0 0
lthumb 16.3052 -288.522 0
rclavicle -4.50819e-14 -6.33389e-15 0
rhumerus 63.2288 -13.9064 -28.0268
rradius 81.9491 0 0
rwrist 27.1533 0 0
rhand -44.0253 -30.9715 0
rfingers 7.12502 0 0
rthumb -16.8456 -60.2607 0
1429
root -2.09332 13.7111 12.6868 366.565 27.3496 366.424
lfemur 25.6659 -0.228508 -10.1871
ltibia 16.8434 0 0
lfoot -15.7933 34.5501 0
ltoes -24.6787 0 0
rfemur -65.4983 -21.3046 12.2061
rtibia 74.2361 0 0
rfoot -9.32492 10.0027 0
rtoes 4.23523 0 0
lowerback 10.2334 2.02338 -10.1661
upperback -3.33221 1.21689 -0.922078
thorax -9.61262 1.16541 4.49895
lowerneck 0.0234366 -11.6625 -10.5119
upperneck 6.10943 -16.0425 9.60644
head 3.43946 -7.97722 3.86481
lclavicle -5.96639e-14 8.14274e-16 0
lhumerus -73.6917 -17.8927 104.267
lradius 100.928 0 0
lwrist 58.3832 0 0
lhand -9.65756 41.9774 0
lfingers 7.12502 0 0
lthumb 16.3134 -288.689 0
rclavicle -5.96639e-14 8.14274e-16 0
rhumerus 63.1731 -13.9105 -27.9735
rradius 81.9964 0 0
rwrist 27.1019 0 0
rhand -43.9673 -31.0001 0
rfingers 7.12502 0 0
rthumb -16.7897 -60.294 0
1430
root -2.09692 13.7107 12.686 366.612 27.287 366.433
lfemur 25.5719 -0.217133 -10.2008
ltibia 16.9301 0 0
lfoot -15.7768 34.6112 0
ltoes -24.143 0 0
rfemur -65.6121 -21.3923 12.3186
rtibia 74.2196 0 0
rfoot -9.29288 10.1774 0
rtoes 4.51038 0 0
lowerback 10.2189 2.02093 -10.1638
upperback -3.34561 1.21522 -0.918541
thorax -9.61877 1.16536 4.50184
lowerneck -0.0134386 -11.6551 -10.488
upperneck 6.09633 -16.028 9.59539
head 3.43721 -7.96889 3.85743
lclavicle -7.83826e-14 9.9458e-15 0
lhumerus -73.7085 -18.0065 104.353
lradius 100.864 0 0
lwrist 58.3908 0 0
lhand -9.64219 41.748 0
lfingers 7.12502 0 0
lthumb 16.3282 -288.919 0
rclavicle -7.83826e-14 9.9458e-15 0
rhumerus 63.0976 -13.9158 -27.907
rradius 82.0595 0 0
rwrist 27.0307 0 0
rhand -43.8961 -31.0336 0
rfingers 7.12502 0 0
rthumb -16.7212 -60.3334 0
1431
root -2.10052 13.7102 12.6851 366.674 27.2085 366.442
lfemur 25.4482 -0.200558 -10.2108
ltibia 17.0462 0 0
lfoot -15.7537 34.6885 0
ltoes -23.435 0 0
rfemur -65.7625 -21.5072 12.4676
rtibia 74.2052 0 0
rfoot -9.25575 10.4017 0
rtoes 4.86911 0 0
lowerback 10.1973 2.01609 -10.1603
upperback -3.36448 1.21119 -0.913604
thorax -9.62651 1.16443 4.50606
lowerneck -0.0623379 -11.6446 -10.4538
upperneck 6.08184 -16.0078 9.5764
head 3.43442 -7.95734 3.84603
lclavicle -1.01789e-13 2.13197e-14 0
lhumerus -73.7318 -18.1502 104.463
lradius 100.78 0 0
lwrist 58.4041 0 0
lhand -9.61855 41.4453 0
lfingers 7.12502 0 0
lthumb 16.3509 -289.224 0
rclavicle -1.01789e-13 2.13197e-14 0
rhumerus 62.9992 -13.9224 -27.8258
rradius 82.1408 0 0
rwrist 26.9367 0 0
rhand -43.8103 -31.0724 0
rfingers 7.12502 0 0
rthumb -16.6386 -60.3792 0
1432
root -2.10344 13.7096 12.6825 366.699 27.1972 366.472
lfemur 25.4088 -0.192157 -10.2336
ltibia 17.0871 0 0
lfoot -15.7456 34.6988 0
ltoes -23.41 0 0
rfemur -65.8048 -21.5475 12.4778
rtibia 74.2097 0 0
rfoot -9.23333 10.4528 0
rtoes 4.90612 0 0
lowerback 10.2063 2.01372 -10.1765
upperback -3.36757 1.20417 -0.916038
thorax -9.63471 1.16243 4.51364
lowerneck -0.0702565 -11.6398 -10.4514
upperneck 6.07818 -15.9998 9.56945
head 3.43304 -7.95333 3.8439
lclavicle -1.02644e-13 2.14945e-14 0
lhumerus -73.7342 -18.1753 104.487
lradius 100.767 0 0
lwrist 58.4061 0 0
lhand -9.61981 41.3791 0
lfingers 7.12502 0 0
lthumb 16.3497 -289.29 0
rclavicle -1.02644e-13 2.14945e-14 0
rhumerus 62.9819 -13.9248 -27.804
rradius 82.168 0 0
rwrist 26.9008 0 0
rhand -43.7857 -31.0657 0
rfingers 7.12502 0 0
rthumb -16.6149 -60.3745 0
1433
root -2.10635 13.709 12.6799 366.715 27.1904 366.492
lfemur 25.3834 -0.186928 -10.2485
ltibia 17.1138 0 0
lfoot -15.7408 34.7052 0
ltoes -23.3986 0 0
rfemur -65.8317 -21.5732 12.4836
rtibia 74.2126 0 0
rfoot -9.21876 10.485 0
rtoes 4.92773 0 0
lowerback 10.2124 2.01214 -10.1869
upperback -3.36947 1.19956 -0.917656
thorax -9.64003 1.16108 4.51843
lowerneck -0.0752466 -11.6367 -10.4501
upperneck 6.07579 -15.9947 9.56501
head 3.43214 -7.95075 3.84257
lclavicle -1.02931e-13 2.15602e-14 0
lhumerus -73.7356 -18.191 104.502
lradius 100.759 0 0
lwrist 58.4072 0 0
lhand -9.62083 41.3378 0
lfingers 7.12502 0 0
lthumb 16.3487 -289.331 0
rclavicle -1.02931e-13 2.15602e-14 0
rhumerus 62.9712 -13.9265 -27.79
rradius 82.1856 0 0
rwrist 26.8776 0 0
rhand -43.7695 -31.0612 0
rfingers 7.12502 0 0
rthumb -16.5993 -60.3712 0
1434
root -2.10927 13.7083 12.6773 366.724 27.1874 366.504
lfemur 25.3678 -0.184215 -10.2579
ltibia 17.1308 0 0
lfoot -15.7387 34.7088 0
ltoes -23.4024 0 0
rfemur -65.8468 -21.588 12.4854
rtibia 74.2146 0 0
rfoot -9.20968 10.5023 0
rtoes 4.93548 0 0
lowerback 10.2167 2.01108 -10.1928
upperback -3.37038 1.19658 -0.918743
thorax -9.64332 1.16016 4.52108
lowerneck -0.0779822 -11.6348 -10.4496
upperneck 6.07425 -15.9916 9.56244
head 3.43157 -7.94921 3.84188
lclavicle -1.0249e-13 2.14906e-14 0
lhumerus -73.7362 -18.1994 104.511
lradius 100.755 0 0
lwrist 58.4076 0 0
lhand -9.62194 41.3161 0
lfingers 7.12502 0 0
lthumb 16.3476 -289.353 0
rclavicle -1.0249e-13 2.14906e-14 0
rhumerus 62.9657 -13.9277 -27.7818
rradius 82.1963 0 0
rwrist 26.8635 0 0
rhand -43.759 -31.0577 0
rfingers 7.12502 0 0
rthumb -16.5892 -60.3686 0
1435
root -2.11219 13.7077 12.6747 366.729 27.1874 366.512
lfemur 25.3583 -0.183365 -10.2642
ltibia 17.1423 0 0
lfoot -15.7389 34.7104 0
ltoes -23.4233 0 0
rfemur -65.8538 -21.5958 12.4837
rtibia 74.216 0 0
rfoot -9.20378 10.509 0
rtoes 4.93094 0 0
lowerback 10.2204 2.01024 -10.196
upperback -3.37052 1.19447 -0.919585
thorax -9.64543 1.1594 4.52227
lowerneck -0.0791377 -11.6337 -10.45
upperneck 6.07318 -15.9898 9.56111
head 3.43117 -7.94831 3.84165
lclavicle -1.01159e-13 2.12591e-14 0
lhumerus -73.7361 -18.2024 104.514
lradius 100.753 0 0
lwrist 58.4072 0 0
lhand -9.62344 41.3089 0
lfingers 7.12502 0 0
lthumb 16.3462 -289.36 0
rclavicle -1.01159e-13 2.12591e-14 0
rhumerus 62.964 -13.9287 -27.7775
rradius 82.2027 0 0
rwrist 26.855 0 0
rhand -43.7514 -31.0545 0
rfingers 7.12502 0 0
rthumb -16.5818 -60.3659 0
1436
root -2.11511 13.7071 12.672 366.732 27.1898 366.519
lfemur 25.3507 -0.18372 -10.2699
ltibia 17.1528 0 0
lfoot -15.741 34.7108 0
ltoes -23.4632 0 0
rfemur -65.8567 -21.6003 12.4786
rtibia 74.2173 0 0
rfoot -9.19872 10.5094 0
rtoes 4.91566 0 0
lowerback 10.2246 2.00937 -10.1977
upperback -3.37011 1.19245 -0.920465
thorax -9.64719 1.15857 4.52263
lowerneck -0.0793874 -11.6328 -10.4512
upperneck 6.07218 -15.9884 9.56035
head 3.4308 -7.94766 3.84171
lclavicle -9.87793e-14 2.08396e-14 0
lhumerus -73.7355 -18.2022 104.515
lradius 100.753 0 0
lwrist 58.4061 0 0
lhand -9.62567 41.3109 0
lfingers 7.12502 0 0
lthumb 16.3441 -289.358 0
rclavicle -9.87793e-14 2.08396e-14 0
rhumerus 62.9648 -13.93 -27.7749
rradius 82.2077 0 0
rwrist 26.8483 0 0
rhand -43.7439 -31.0506 0
rfingers 7.12502 0 0
rthumb -16.5747 -60.3626 0
1437
root -2.11802 13.7065 12.6694 366.736 27.1939 366.527
lfemur 25.3413 -0.184628 -10.2774
ltibia 17.1666 0 0
lfoot -15.7445 34.7109 0
ltoes -23.5239 0 0
rfemur -65.859 -21.6051 12.4706
rtibia 74.2192 0 0
rfoot -9.19218 10.5078 0
rtoes 4.89119 0 0
lowerback 10.2306 2.00817 -10.1997
upperback -3.36935 1.18975 -0.921671
thorax -9.64945 1.15742 4.52284
lowerneck -0.0794055 -11.6316 -10.4531
upperneck 6.07084 -15.9866 9.55954
head 3.43031 -7.94688 3.84191
lclavicle -9.51888e-14 2.02056e-14 0
lhumerus -73.7345 -18.2007 104.515
lradius 100.754 0 0
lwrist 58.4045 0 0
lhand -9.62893 41.3168 0
lfingers 7.12502 0 0
lthumb 16.3409 -289.352 0
rclavicle -9.51888e-14 2.02056e-14 0
rhumerus 62.9669 -13.9318 -27.772
rradius 82.214 0 0
rwrist 26.84 0 0
rhand -43.7339 -31.045 0
rfingers 7.12502 0 0
rthumb -16.565 -60.3578 0
1438
root -2.12094 13.7059 12.6668 366.742 27.199 366.541
lfemur 25.3259 -0.185431 -10.2891
ltibia 17.1881 0 0
lfoot -15.7488 34.7116 0
ltoes -23.6072 0 0
rfemur -65.8646 -21.614 12.46
rtibia 74.222 0 0
rfoot -9.18182 10.5083 0
rtoes 4.8591 0 0
lowerback 10.2394 2.00636 -10.2033
upperback -3.36846 1.18559 -0.923486
thorax -9.65306 1.15571 4.52355
lowerneck -0.0798663 -11.6298 -10.4555
upperneck 6.06878 -15.9838 9.55802
head 3.42955 -7.94557 3.84206
lclavicle -9.02271e-14 1.93308e-14 0
lhumerus -73.7332 -18.2 104.516
lradius 100.754 0 0
lwrist 58.4023 0 0
lhand -9.63356 41.3215 0
lfingers 7.12502 0 0
lthumb 16.3365 -289.347 0
rclavicle -9.02271e-14 1.93308e-14 0
rhumerus 62.9688 -13.9345 -27.7667
rradius 82.2242 0 0
rwrist 26.8265 0 0
rhand -43.7185 -31.0369 0
rfingers 7.12502 0 0
rthumb -16.5502 -60.3509 0
1439
root -2.12386 13.7053 12.6642 366.754 27.2045 366.563
lfemur 25.3006 -0.185476 -10.3075
ltibia 17.2218 0 0
lfoot -15.7536 34.7139 0
ltoes -23.7149 0 0
rfemur -65.8773 -21.6308 12.4471
rtibia 74.2263 0 0
rfoot -9.16531 10.5152 0
rtoes 4.82093 0 0
lowerback 10.2522 2.00367 -10.21
upperback -3.36766 1.17921 -0.926197
thorax -9.65885 1.15319 4.52541
lowerneck -0.081444 -11.6268 -10.4585
upperneck 6.06559 -15.9791 9.55515
head 3.42838 -7.94334 3.842
lclavicle -8.37334e-14 1.81888e-14 0
lhumerus -73.7317 -18.2021 104.52
lradius 100.753 0 0
lwrist 58.3996 0 0
lhand -9.63987 41.3195 0
lfingers 7.12502 0 0
lthumb 16.3304 -289.348 0
rclavicle -8.37334e-14 1.81888e-14 0
rhumerus 62.9692 -13.9383 -27.757
rradius 82.241 0 0
rwrist 26.8041 0 0
rhand -43.6951 -31.0253 0
rfingers 7.12502 0 0
rthumb -16.5277 -60.3411 0
1440
root -2.12678 13.7046 12.6616 366.773 27.2095 366.596
lfemur 25.2615 -0.184106 -10.3349
ltibia 17.2718 0 0
lfoot -15.7585 34.7185 0
ltoes -23.8488 0 0
rfemur -65.9006 -21.6592 12.4323
rtibia 74.2325 0 0
rfoot -9.14031 10.5328 0
rtoes 4.77825 0 0
lowerback 10.2701 1.99981 -10.2214
upperback -3.36715 1.16983 -0.930089
thorax -9.66768 1.14961 4.52909
lowerneck -0.084813 -11.6221 -10.4619
upperneck 6.06087 -15.9716 9.55029
head 3.42664 -7.9398 3.84157
lclavicle -7.5547e-14 1.67533e-14 0
lhumerus -73.7302 -18.209 104.53
lradius 100.749 0 0
lwrist 58.3965 0 0
lhand -9.64817 41.3058 0
lfingers 7.12502 0 0
lthumb 16.3224 -289.361 0
rclavicle -7.5547e-14 1.67533e-14 0
rhumerus 62.9668 -13.9436 -27.7409
rradius 82.2673 0 0
rwrist 26.7693 0 0
rhand -43.6609 -31.0093 0
rfingers 7.12502 0 0
rthumb -16.4947 -60.3278 0
